<mxfile host="app.diagrams.net" modified="2023-08-26T16:45:50.627Z" agent="Mozilla/5.0 (Windows NT 10.0; Win64; x64) AppleWebKit/537.36 (KHTML, like Gecko) Chrome/114.0.0.0 YaBrowser/23.7.3.823 Yowser/2.5 Safari/537.36" etag="GWjnrDWuCKZQ3GbEKK6-" version="21.6.9" type="github">
  <diagram name="Страница — 1" id="LjH31dNEee1fVo30yW9x">
    <mxGraphModel dx="1386" dy="767" grid="1" gridSize="10" guides="1" tooltips="1" connect="1" arrows="1" fold="1" page="1" pageScale="1" pageWidth="1169" pageHeight="827" math="0" shadow="0">
      <root>
        <mxCell id="0" />
        <mxCell id="1" parent="0" />
        <mxCell id="2bfSmZ972-PUe85R2G5Z-3" value="" style="edgeStyle=orthogonalEdgeStyle;rounded=0;orthogonalLoop=1;jettySize=auto;html=1;" edge="1" parent="1" source="2bfSmZ972-PUe85R2G5Z-1" target="2bfSmZ972-PUe85R2G5Z-2">
          <mxGeometry relative="1" as="geometry" />
        </mxCell>
        <mxCell id="2bfSmZ972-PUe85R2G5Z-1" value="Нахождение 2-го максимального числа" style="rounded=1;whiteSpace=wrap;html=1;" vertex="1" parent="1">
          <mxGeometry x="510" y="10" width="120" height="60" as="geometry" />
        </mxCell>
        <mxCell id="2bfSmZ972-PUe85R2G5Z-5" value="" style="edgeStyle=orthogonalEdgeStyle;rounded=0;orthogonalLoop=1;jettySize=auto;html=1;" edge="1" parent="1" source="2bfSmZ972-PUe85R2G5Z-2" target="2bfSmZ972-PUe85R2G5Z-4">
          <mxGeometry relative="1" as="geometry" />
        </mxCell>
        <mxCell id="2bfSmZ972-PUe85R2G5Z-2" value="size&lt;br&gt;arr[size]" style="shape=parallelogram;perimeter=parallelogramPerimeter;whiteSpace=wrap;html=1;fixedSize=1;" vertex="1" parent="1">
          <mxGeometry x="510" y="110" width="120" height="60" as="geometry" />
        </mxCell>
        <mxCell id="2bfSmZ972-PUe85R2G5Z-7" value="" style="edgeStyle=orthogonalEdgeStyle;rounded=0;orthogonalLoop=1;jettySize=auto;html=1;" edge="1" parent="1" source="2bfSmZ972-PUe85R2G5Z-4" target="2bfSmZ972-PUe85R2G5Z-6">
          <mxGeometry relative="1" as="geometry" />
        </mxCell>
        <mxCell id="2bfSmZ972-PUe85R2G5Z-4" value="index = 0&lt;br&gt;max_index = 1&lt;br&gt;second_max_index = 1" style="rounded=0;whiteSpace=wrap;html=1;" vertex="1" parent="1">
          <mxGeometry x="480" y="220" width="180" height="60" as="geometry" />
        </mxCell>
        <mxCell id="2bfSmZ972-PUe85R2G5Z-9" value="" style="edgeStyle=orthogonalEdgeStyle;rounded=0;orthogonalLoop=1;jettySize=auto;html=1;" edge="1" parent="1" source="2bfSmZ972-PUe85R2G5Z-6" target="2bfSmZ972-PUe85R2G5Z-8">
          <mxGeometry relative="1" as="geometry" />
        </mxCell>
        <mxCell id="2bfSmZ972-PUe85R2G5Z-10" value="Yes" style="edgeLabel;html=1;align=center;verticalAlign=middle;resizable=0;points=[];" vertex="1" connectable="0" parent="2bfSmZ972-PUe85R2G5Z-9">
          <mxGeometry x="-0.36" relative="1" as="geometry">
            <mxPoint as="offset" />
          </mxGeometry>
        </mxCell>
        <mxCell id="2bfSmZ972-PUe85R2G5Z-6" value="index &amp;lt; size" style="rhombus;whiteSpace=wrap;html=1;" vertex="1" parent="1">
          <mxGeometry x="495" y="320" width="150" height="80" as="geometry" />
        </mxCell>
        <mxCell id="2bfSmZ972-PUe85R2G5Z-12" value="" style="edgeStyle=orthogonalEdgeStyle;rounded=0;orthogonalLoop=1;jettySize=auto;html=1;" edge="1" parent="1" source="2bfSmZ972-PUe85R2G5Z-8" target="2bfSmZ972-PUe85R2G5Z-11">
          <mxGeometry relative="1" as="geometry" />
        </mxCell>
        <mxCell id="2bfSmZ972-PUe85R2G5Z-13" value="Yes" style="edgeLabel;html=1;align=center;verticalAlign=middle;resizable=0;points=[];" vertex="1" connectable="0" parent="2bfSmZ972-PUe85R2G5Z-12">
          <mxGeometry x="-0.0588" y="4" relative="1" as="geometry">
            <mxPoint as="offset" />
          </mxGeometry>
        </mxCell>
        <mxCell id="2bfSmZ972-PUe85R2G5Z-8" value="arr[max_index] &amp;lt; arr[index]" style="strokeWidth=2;html=1;shape=mxgraph.flowchart.decision;whiteSpace=wrap;" vertex="1" parent="1">
          <mxGeometry x="455" y="450" width="230" height="100" as="geometry" />
        </mxCell>
        <mxCell id="2bfSmZ972-PUe85R2G5Z-11" value="max_index = index" style="rounded=0;whiteSpace=wrap;html=1;" vertex="1" parent="1">
          <mxGeometry x="230" y="470" width="140" height="60" as="geometry" />
        </mxCell>
      </root>
    </mxGraphModel>
  </diagram>
</mxfile>
